<svg xmlns="http://www.w3.org/2000/svg" xml:space="preserve" style="fill-rule:evenodd;clip-rule:evenodd;stroke-linejoin:round;stroke-miterlimit:2" viewBox="0 0 600 600"><path d="M571 479H29c41 72 118 121 206 121h130c89 0 165-49 206-121Z" style="fill:#ebcb8b"/><path d="M0 262h600v-27C600 105 495 0 365 0H235A235 235 0 0 0 0 235v27Z"/><path d="M0 262v53h600v-53H0Z" style="fill:#ebcb8b"/><path d="M600 365v-50H0v50c0 41 11 80 29 114h542l1-2c18-35 27-72 28-112Z"/><circle cx="123" cy="365" r="37" style="fill:#fff" transform="translate(-88 -192) scale(1.615)"/><circle cx="123" cy="365" r="37" transform="matrix(.857 0 0 .857 5 84)"/><circle cx="123" cy="365" r="37" style="fill:#fff" transform="translate(291 -192) scale(1.615)"/><circle cx="123" cy="365" r="37" transform="matrix(.857 0 0 .857 384 84)"/></svg>